<?xml version="1.0" encoding="utf-8"?>
<svg version="1.1" xmlns:xlink="http://www.w3.org/1999/xlink" width="11px" height="6px" xmlns="http://www.w3.org/2000/svg">
  <g transform="matrix(1 0 0 1 -605 -36 )">
    <path d="M 10.8897795591182 0.618556701030928  C 10.9632598530394 0.687285223367696  11 0.766323024054982  11 0.855670103092784  C 11 0.945017182130584  10.9632598530394 1.02405498281787  10.8897795591182 1.09278350515464  L 5.75350701402806 5.89690721649484  C 5.68002672010688 5.96563573883161  5.59552438209753 6  5.5 6  C 5.40447561790247 6  5.31997327989312 5.96563573883161  5.24649298597194 5.89690721649484  L 0.110220440881764 1.09278350515464  C 0.036740146960588 1.02405498281787  0 0.945017182130584  0 0.855670103092784  C 0 0.766323024054982  0.036740146960588 0.687285223367696  0.110220440881764 0.618556701030928  L 0.661322645290581 0.103092783505155  C 0.734802939211757 0.0343642611683841  0.819305277221109 0  0.914829659318637 0  C 1.01035404141617 0  1.09485637942552 0.0343642611683841  1.16833667334669 0.103092783505155  L 5.5 4.15463917525773  L 9.83166332665331 0.103092783505155  C 9.90514362057448 0.0343642611683841  9.98964595858383 0  10.0851703406814 0  C 10.1806947227789 0  10.2651970607882 0.0343642611683841  10.3386773547094 0.103092783505155  L 10.8897795591182 0.618556701030928  Z " fill-rule="nonzero" fill="#d4d4d4" stroke="none" transform="matrix(1 0 0 1 605 36 )" />
  </g>
</svg>