<?xml version="1.0" encoding="utf-8"?>
<svg version="1.1" xmlns:xlink="http://www.w3.org/1999/xlink" width="16px" height="18px" xmlns="http://www.w3.org/2000/svg">
  <g transform="matrix(1 0 0 1 -177 -21 )">
    <path d="M 1.23076923076923 13.8214285714286  L 1.23076923076923 16.7142857142857  L 4 16.7142857142857  L 4 13.8214285714286  L 1.23076923076923 13.8214285714286  Z M 4.61538461538462 13.8214285714286  L 4.61538461538462 16.7142857142857  L 7.69230769230769 16.7142857142857  L 7.69230769230769 13.8214285714286  L 4.61538461538462 13.8214285714286  Z M 1.23076923076923 9.96428571428572  L 1.23076923076923 13.1785714285714  L 4 13.1785714285714  L 4 9.96428571428572  L 1.23076923076923 9.96428571428572  Z M 4.61538461538462 9.96428571428572  L 4.61538461538462 13.1785714285714  L 7.69230769230769 13.1785714285714  L 7.69230769230769 9.96428571428572  L 4.61538461538462 9.96428571428572  Z M 1.23076923076923 6.42857142857143  L 1.23076923076923 9.32142857142857  L 4 9.32142857142857  L 4 6.42857142857143  L 1.23076923076923 6.42857142857143  Z M 8.30769230769231 13.8214285714286  L 8.30769230769231 16.7142857142857  L 11.3846153846154 16.7142857142857  L 11.3846153846154 13.8214285714286  L 8.30769230769231 13.8214285714286  Z M 4.61538461538462 6.42857142857143  L 4.61538461538462 9.32142857142857  L 7.69230769230769 9.32142857142857  L 7.69230769230769 6.42857142857143  L 4.61538461538462 6.42857142857143  Z M 12 13.8214285714286  L 12 16.7142857142857  L 14.7692307692308 16.7142857142857  L 14.7692307692308 13.8214285714286  L 12 13.8214285714286  Z M 8.30769230769231 9.96428571428572  L 8.30769230769231 13.1785714285714  L 11.3846153846154 13.1785714285714  L 11.3846153846154 9.96428571428572  L 8.30769230769231 9.96428571428572  Z M 4.83173076923077 4.72600446428572  C 4.89262820512821 4.66238839285714  4.92307692307692 4.58705357142857  4.92307692307692 4.5  L 4.92307692307692 1.60714285714286  C 4.92307692307692 1.52008928571429  4.89262820512821 1.44475446428571  4.83173076923077 1.38113839285714  C 4.77083333333333 1.31752232142857  4.69871794871795 1.28571428571429  4.61538461538462 1.28571428571429  L 4 1.28571428571429  C 3.91666666666667 1.28571428571429  3.84455128205128 1.31752232142857  3.78365384615385 1.38113839285714  C 3.72275641025641 1.44475446428571  3.69230769230769 1.52008928571429  3.69230769230769 1.60714285714286  L 3.69230769230769 4.5  C 3.69230769230769 4.58705357142857  3.72275641025641 4.66238839285714  3.78365384615385 4.72600446428572  C 3.84455128205128 4.78962053571429  3.91666666666667 4.82142857142857  4 4.82142857142857  L 4.61538461538462 4.82142857142857  C 4.69871794871795 4.82142857142857  4.77083333333333 4.78962053571429  4.83173076923077 4.72600446428572  Z M 12 9.96428571428572  L 12 13.1785714285714  L 14.7692307692308 13.1785714285714  L 14.7692307692308 9.96428571428572  L 12 9.96428571428572  Z M 8.30769230769231 6.42857142857143  L 8.30769230769231 9.32142857142857  L 11.3846153846154 9.32142857142857  L 11.3846153846154 6.42857142857143  L 8.30769230769231 6.42857142857143  Z M 12 6.42857142857143  L 12 9.32142857142857  L 14.7692307692308 9.32142857142857  L 14.7692307692308 6.42857142857143  L 12 6.42857142857143  Z M 12.2163461538462 4.72600446428572  C 12.2772435897436 4.66238839285714  12.3076923076923 4.58705357142857  12.3076923076923 4.5  L 12.3076923076923 1.60714285714286  C 12.3076923076923 1.52008928571429  12.2772435897436 1.44475446428571  12.2163461538462 1.38113839285714  C 12.1554487179487 1.31752232142857  12.0833333333333 1.28571428571429  12 1.28571428571429  L 11.3846153846154 1.28571428571429  C 11.3012820512821 1.28571428571429  11.2291666666667 1.31752232142857  11.1682692307692 1.38113839285714  C 11.1073717948718 1.44475446428571  11.0769230769231 1.52008928571429  11.0769230769231 1.60714285714286  L 11.0769230769231 4.5  C 11.0769230769231 4.58705357142857  11.1073717948718 4.66238839285714  11.1682692307692 4.72600446428572  C 11.2291666666667 4.78962053571429  11.3012820512821 4.82142857142857  11.3846153846154 4.82142857142857  L 12 4.82142857142857  C 12.0833333333333 4.82142857142857  12.1554487179487 4.78962053571429  12.2163461538462 4.72600446428572  Z M 15.6346153846154 2.953125  C 15.8782051282051 3.20758928571429  16 3.50892857142857  16 3.85714285714286  L 16 16.7142857142857  C 16 17.0625  15.8782051282051 17.3638392857143  15.6346153846154 17.6183035714286  C 15.3910256410256 17.8727678571429  15.1025641025641 18  14.7692307692308 18  L 1.23076923076923 18  C 0.897435897435898 18  0.608974358974359 17.8727678571429  0.365384615384615 17.6183035714286  C 0.121794871794872 17.3638392857143  0 17.0625  0 16.7142857142857  L 0 3.85714285714286  C 0 3.50892857142857  0.121794871794872 3.20758928571429  0.365384615384615 2.953125  C 0.608974358974359 2.69866071428571  0.897435897435898 2.57142857142857  1.23076923076923 2.57142857142857  L 2.46153846153846 2.57142857142857  L 2.46153846153846 1.60714285714286  C 2.46153846153846 1.16517857142857  2.61217948717949 0.786830357142856  2.91346153846154 0.472098214285715  C 3.21474358974359 0.157366071428572  3.57692307692308 0  4 0  L 4.61538461538462 0  C 5.03846153846154 0  5.40064102564103 0.157366071428572  5.70192307692308 0.472098214285715  C 6.00320512820513 0.786830357142856  6.15384615384615 1.16517857142857  6.15384615384615 1.60714285714286  L 6.15384615384615 2.57142857142857  L 9.84615384615385 2.57142857142857  L 9.84615384615385 1.60714285714286  C 9.84615384615385 1.16517857142857  9.99679487179487 0.786830357142856  10.2980769230769 0.472098214285715  C 10.599358974359 0.157366071428572  10.9615384615385 0  11.3846153846154 0  L 12 0  C 12.4230769230769 0  12.7852564102564 0.157366071428572  13.0865384615385 0.472098214285715  C 13.3878205128205 0.786830357142856  13.5384615384615 1.16517857142857  13.5384615384615 1.60714285714286  L 13.5384615384615 2.57142857142857  L 14.7692307692308 2.57142857142857  C 15.1025641025641 2.57142857142857  15.3910256410256 2.69866071428571  15.6346153846154 2.953125  Z " fill-rule="nonzero" fill="#aaaaaa" stroke="none" transform="matrix(1 0 0 1 177 21 )" />
  </g>
</svg>